<mxfile host="app.diagrams.net" agent="Mozilla/5.0 (Macintosh; Intel Mac OS X 10_15_7) AppleWebKit/537.36 (KHTML, like Gecko) Chrome/140.0.0.0 Safari/537.36" version="28.2.5">
  <diagram name="第 1 页" id="E2O9zqp3i6Xpa0Hee3S6">
    <mxGraphModel dx="906" dy="633" grid="1" gridSize="10" guides="1" tooltips="1" connect="1" arrows="1" fold="1" page="1" pageScale="1" pageWidth="827" pageHeight="1169" math="0" shadow="0">
      <root>
        <mxCell id="0" />
        <mxCell id="1" parent="0" />
        <mxCell id="bbcPa2-DJn3oHMA3QkiS-10" value="" style="edgeStyle=orthogonalEdgeStyle;rounded=0;orthogonalLoop=1;jettySize=auto;html=1;startArrow=classic;startFill=1;strokeWidth=2;" parent="1" source="bbcPa2-DJn3oHMA3QkiS-2" target="bbcPa2-DJn3oHMA3QkiS-5" edge="1">
          <mxGeometry relative="1" as="geometry" />
        </mxCell>
        <mxCell id="bbcPa2-DJn3oHMA3QkiS-2" value="&lt;font style=&quot;font-size: 21px;&quot;&gt;nRF 7002 DK&lt;/font&gt;&lt;div&gt;&lt;font style=&quot;font-size: 21px;&quot;&gt;(nRF 5340)&lt;/font&gt;&lt;/div&gt;" style="rounded=1;whiteSpace=wrap;html=1;fillColor=#fff2cc;strokeColor=#d6b656;" parent="1" vertex="1">
          <mxGeometry x="710" y="590" width="150" height="60" as="geometry" />
        </mxCell>
        <mxCell id="bbcPa2-DJn3oHMA3QkiS-3" value="&lt;span style=&quot;font-size: 21px;&quot;&gt;Pressure Sensor&lt;/span&gt;" style="rounded=1;whiteSpace=wrap;html=1;fillColor=#d5e8d4;strokeColor=#82b366;verticalAlign=top;" parent="1" vertex="1">
          <mxGeometry x="1010" y="430" width="150" height="90" as="geometry" />
        </mxCell>
        <mxCell id="bbcPa2-DJn3oHMA3QkiS-5" value="&lt;font style=&quot;font-size: 21px;&quot;&gt;Humidity and Temperature Sensor&lt;/font&gt;" style="rounded=1;whiteSpace=wrap;html=1;fillColor=#d5e8d4;strokeColor=#82b366;verticalAlign=top;" parent="1" vertex="1">
          <mxGeometry x="1010" y="560" width="150" height="120" as="geometry" />
        </mxCell>
        <mxCell id="bbcPa2-DJn3oHMA3QkiS-8" value="&lt;div&gt;&lt;span style=&quot;font-size: 21px; background-color: transparent; color: light-dark(rgb(0, 0, 0), rgb(255, 255, 255));&quot;&gt;IMU&lt;/span&gt;&lt;/div&gt;" style="rounded=1;whiteSpace=wrap;html=1;fillColor=#d5e8d4;strokeColor=#82b366;verticalAlign=top;" parent="1" vertex="1">
          <mxGeometry x="1010" y="720" width="150" height="70" as="geometry" />
        </mxCell>
        <mxCell id="IU0iIOWU37G3tHeHC3Pe-2" value="" style="endArrow=classic;startArrow=classic;html=1;rounded=0;exitX=1;exitY=0;exitDx=0;exitDy=0;entryX=0;entryY=0.5;entryDx=0;entryDy=0;strokeWidth=2;" edge="1" parent="1" source="bbcPa2-DJn3oHMA3QkiS-2" target="bbcPa2-DJn3oHMA3QkiS-3">
          <mxGeometry width="50" height="50" relative="1" as="geometry">
            <mxPoint x="850" y="690" as="sourcePoint" />
            <mxPoint x="900" y="640" as="targetPoint" />
          </mxGeometry>
        </mxCell>
        <mxCell id="IU0iIOWU37G3tHeHC3Pe-3" value="" style="endArrow=classic;startArrow=classic;html=1;rounded=0;exitX=1;exitY=1;exitDx=0;exitDy=0;entryX=0;entryY=0.5;entryDx=0;entryDy=0;strokeWidth=2;" edge="1" parent="1" source="bbcPa2-DJn3oHMA3QkiS-2" target="bbcPa2-DJn3oHMA3QkiS-8">
          <mxGeometry width="50" height="50" relative="1" as="geometry">
            <mxPoint x="860" y="770" as="sourcePoint" />
            <mxPoint x="1010" y="660" as="targetPoint" />
          </mxGeometry>
        </mxCell>
        <mxCell id="IU0iIOWU37G3tHeHC3Pe-4" value="&lt;span style=&quot;font-size: 21px;&quot;&gt;Mobile Phone&lt;/span&gt;" style="rounded=1;whiteSpace=wrap;html=1;fillColor=#dae8fc;strokeColor=#6c8ebf;" vertex="1" parent="1">
          <mxGeometry x="470" y="590" width="150" height="60" as="geometry" />
        </mxCell>
        <mxCell id="IU0iIOWU37G3tHeHC3Pe-5" value="" style="endArrow=classic;startArrow=classic;html=1;rounded=0;exitX=1;exitY=0.5;exitDx=0;exitDy=0;entryX=0;entryY=0.5;entryDx=0;entryDy=0;strokeWidth=2;" edge="1" parent="1" source="IU0iIOWU37G3tHeHC3Pe-4" target="bbcPa2-DJn3oHMA3QkiS-2">
          <mxGeometry width="50" height="50" relative="1" as="geometry">
            <mxPoint x="630" y="650" as="sourcePoint" />
            <mxPoint x="680" y="600" as="targetPoint" />
          </mxGeometry>
        </mxCell>
        <mxCell id="IU0iIOWU37G3tHeHC3Pe-6" value="&lt;font style=&quot;font-size: 18px;&quot;&gt;BLE&lt;/font&gt;" style="text;html=1;align=center;verticalAlign=middle;whiteSpace=wrap;rounded=0;" vertex="1" parent="1">
          <mxGeometry x="640" y="590" width="60" height="30" as="geometry" />
        </mxCell>
        <mxCell id="IU0iIOWU37G3tHeHC3Pe-7" value="&lt;font style=&quot;font-size: 18px;&quot;&gt;I2C&lt;/font&gt;" style="text;html=1;align=center;verticalAlign=middle;whiteSpace=wrap;rounded=0;" vertex="1" parent="1">
          <mxGeometry x="855" y="510" width="130" height="30" as="geometry" />
        </mxCell>
        <mxCell id="IU0iIOWU37G3tHeHC3Pe-8" value="&lt;font style=&quot;font-size: 18px;&quot;&gt;I2C&lt;/font&gt;" style="text;html=1;align=center;verticalAlign=middle;whiteSpace=wrap;rounded=0;" vertex="1" parent="1">
          <mxGeometry x="910" y="590" width="60" height="30" as="geometry" />
        </mxCell>
        <mxCell id="IU0iIOWU37G3tHeHC3Pe-9" value="&lt;font style=&quot;font-size: 18px;&quot;&gt;I2C&lt;/font&gt;" style="text;html=1;align=center;verticalAlign=middle;whiteSpace=wrap;rounded=0;" vertex="1" parent="1">
          <mxGeometry x="890" y="700" width="60" height="30" as="geometry" />
        </mxCell>
        <mxCell id="IU0iIOWU37G3tHeHC3Pe-12" value="&lt;span style=&quot;font-size: 18px;&quot;&gt;Address: 0x76&lt;/span&gt;" style="text;html=1;align=center;verticalAlign=middle;whiteSpace=wrap;rounded=0;labelBorderColor=none;fontColor=#FF0000;" vertex="1" parent="1">
          <mxGeometry x="1020" y="490" width="130" height="30" as="geometry" />
        </mxCell>
        <mxCell id="IU0iIOWU37G3tHeHC3Pe-14" value="&lt;span style=&quot;font-size: 18px;&quot;&gt;Address:&amp;nbsp;&lt;/span&gt;&lt;font style=&quot;font-size: 18px;&quot;&gt;0x44&lt;/font&gt;" style="text;html=1;align=center;verticalAlign=middle;whiteSpace=wrap;rounded=0;fontColor=#FF0000;" vertex="1" parent="1">
          <mxGeometry x="1020" y="650" width="130" height="30" as="geometry" />
        </mxCell>
        <mxCell id="IU0iIOWU37G3tHeHC3Pe-15" value="&lt;span style=&quot;font-size: 18px;&quot;&gt;Address:&amp;nbsp;&lt;/span&gt;&lt;font style=&quot;font-size: 18px;&quot;&gt;0x68&lt;/font&gt;" style="text;html=1;align=center;verticalAlign=middle;whiteSpace=wrap;rounded=0;fontColor=#FF0000;" vertex="1" parent="1">
          <mxGeometry x="1020" y="760" width="130" height="30" as="geometry" />
        </mxCell>
      </root>
    </mxGraphModel>
  </diagram>
</mxfile>
